<svg width="100" height="73" viewBox="0 0 100 73" fill="none" xmlns="http://www.w3.org/2000/svg">
<path fill-rule="evenodd" clip-rule="evenodd" d="M99.9757 24.3269C99.9757 37.7623 88.9905 48.6538 75.4395 48.6538C61.8886 48.6538 50.9033 37.7623 50.9033 24.3269C50.9033 10.8915 61.8886 0 75.4395 0C88.9905 0 99.9757 10.8915 99.9757 24.3269ZM90.088 24.3269C90.088 32.348 83.5297 38.8504 75.4395 38.8504C67.3494 38.8504 60.791 32.348 60.791 24.3269C60.791 16.3058 67.3494 9.80338 75.4395 9.80338C83.5297 9.80338 90.088 16.3058 90.088 24.3269Z" fill="white"/>
<path fill-rule="evenodd" clip-rule="evenodd" d="M0.0673828 48.6538C0.0673828 62.0892 11.0526 72.9807 24.6036 72.9807C38.1546 72.9807 49.1398 62.0892 49.1398 48.6538H39.2521C39.2521 56.6749 32.6937 63.1773 24.6036 63.1773C16.5135 63.1773 9.95511 56.6749 9.95511 48.6538H0.0673828Z" fill="white"/>
<path fill-rule="evenodd" clip-rule="evenodd" d="M24.6036 48.6538C38.1546 48.6538 49.1398 37.7623 49.1398 24.3269C49.1398 17.2559 46.097 10.8895 41.2388 6.44461L46.9425 0.323375L26.8469 0.100312C26.1081 0.0339211 25.3598 0 24.6036 0C24.0362 0 23.4733 0.0190955 22.9155 0.0566737L22.6652 0.0538959L22.6937 0.0726065C10.0353 1.03884 0.0673828 11.5287 0.0673828 24.3269C0.0673828 37.7623 11.0526 48.6538 24.6036 48.6538ZM24.6036 38.8504C32.6937 38.8504 39.2521 32.348 39.2521 24.3269C39.2521 16.3058 32.6937 9.80338 24.6036 9.80338C16.5135 9.80338 9.95511 16.3058 9.95511 24.3269C9.95511 32.348 16.5135 38.8504 24.6036 38.8504Z" fill="white"/>
</svg>
